<?xml version="1.0" encoding="utf-8"?>
<svg xmlns="http://www.w3.org/2000/svg">
<symbol id="arrow-down" viewBox="0 0 16 10">
<rect width="10.9422" height="1.89983" transform="matrix(0.707107 0.707107 0.707107 -0.707107 0.126953 1.44983)" fill="currentColor"/>
<rect width="11.0007" height="1.89983" transform="matrix(0.707107 -0.707107 -0.707107 -0.707107 7.95312 9.28064)" fill="currentColor"/>

</symbol>
<symbol id="arrow-up" viewBox="0 0 16 10">
    <rect width="10.9422" height="1.89983" transform="matrix(-0.707107 -0.707107 -0.707107 0.707107 15.873 8.55017)" fill="currentColor"/>
    <rect width="11.0007" height="1.89983" transform="matrix(-0.707107 0.707107 0.707107 0.707107 8.04688 0.71936)" fill="currentColor"/>

</symbol>
<symbol id="bold" viewBox="0 0 12 14">
<path fill-rule="evenodd" clip-rule="evenodd" d="M9.22502 6.79002C10.195 6.12002 10.875 5.02001 10.875 4.00001C10.875 1.74 9.12502 0 6.87501 0H0.625V14H7.66502C9.75502 14 11.375 12.3 11.375 10.21C11.375 8.69002 10.515 7.39002 9.22502 6.79002ZM3.62516 2.49998H6.62516C7.45517 2.49998 8.12517 3.16999 8.12517 3.99999C8.12517 4.82999 7.45517 5.49999 6.62516 5.49999H3.62516V2.49998ZM3.62516 11.5H7.12517C7.95517 11.5 8.62517 10.83 8.62517 10C8.62517 9.17003 7.95517 8.50003 7.12517 8.50003H3.62516V11.5Z" fill="currectColor"/>

</symbol>
<symbol id="cross" viewBox="0 0 237 237">
  <path transform="rotate(45 280.675 51.325)" d="M191 191V73c0-5.523 4.477-10 10-10h25c5.523 0 10 4.477 10 10v118h118c5.523 0 10 4.477 10 10v25c0 5.523-4.477 10-10 10H236v118c0 5.523-4.477 10-10 10h-25c-5.523 0-10-4.477-10-10V236H73c-5.523 0-10-4.477-10-10v-25c0-5.523 4.477-10 10-10h118z"/>

</symbol>
<symbol id="dots" viewBox="0 0 24 6">
  <path d="M18 3C18 4.65 19.35 6 21 6C22.65 6 24 4.65 24 3C24 1.35 22.65 -5.90104e-08 21 -1.31134e-07C19.35 -2.03258e-07 18 1.35 18 3Z" fill="currentColor"/>
  <path d="M15 3C15 1.35 13.65 -5.90104e-08 12 -1.31134e-07C10.35 -2.03258e-07 9 1.35 9 3C9 4.65 10.35 6 12 6C13.65 6 15 4.65 15 3Z" fill="currentColor"/>
  <path d="M6 3C6 1.35 4.65 -5.90104e-08 3 -1.31134e-07C1.35 -2.03258e-07 -5.90104e-08 1.35 -1.31134e-07 3C-2.03258e-07 4.65 1.35 6 3 6C4.65 6 6 4.65 6 3Z" fill="currentColor"/>

</symbol>
<symbol id="italic" viewBox="0 0 12 14">
    <path d="M4 0V3H6.21L2.79 11H0V14H8V11H5.79L9.21 3H12V0H4Z" fill="currentColor"/>

</symbol>
<symbol id="link" viewBox="0 0 20 10">
<path fill-rule="evenodd" clip-rule="evenodd" d="M1.9 5C1.9 3.29 3.29 1.9 5 1.9H9V0H5C2.24 0 0 2.24 0 5C0 7.76 2.24 10 5 10H9V8.1H5C3.29 8.1 1.9 6.71 1.9 5ZM6 6H14V4H6V6ZM11 0H15C17.76 0 20 2.24 20 5C20 7.76 17.76 10 15 10H11V8.1H15C16.71 8.1 18.1 6.71 18.1 5C18.1 3.29 16.71 1.9 15 1.9H11V0Z" fill="currentColor"/>

</symbol>
<symbol id="plus" viewBox="0 0 20 20">
<rect x="1.875" y="8.94495" width="16.1604" height="2.02005" fill="currentColor"/>
<rect x="10.9648" y="1.87476" width="16.1604" height="2.02005" transform="rotate(90 10.9648 1.87476)" fill="currentColor"/>

</symbol>
<symbol id="sad-face" viewBox="0 0 52 52">
    <path fill="#D76B6B" fill-rule="nonzero" d="M26 52C11.64 52 0 40.36 0 26S11.64 0 26 0s26 11.64 26 26-11.64 26-26 26zm0-3.25c12.564 0 22.75-10.186 22.75-22.75S38.564 3.25 26 3.25 3.25 13.436 3.25 26 13.436 48.75 26 48.75zM15.708 33.042a2.167 2.167 0 1 1 0-4.334 2.167 2.167 0 0 1 0 4.334zm23.834 0a2.167 2.167 0 1 1 0-4.334 2.167 2.167 0 0 1 0 4.334zm-15.875 5.452a1.083 1.083 0 1 1-1.834-1.155c1.331-2.114 3.49-3.179 6.334-3.179 2.844 0 5.002 1.065 6.333 3.18a1.083 1.083 0 1 1-1.833 1.154c-.913-1.45-2.366-2.167-4.5-2.167s-3.587.717-4.5 2.167z"/>

</symbol>
<symbol id="toggler-down">
  <path d="M6.5 9.294a.792.792 0 01-.562-.232L2.233 5.356a.794.794 0 011.123-1.123L6.5 7.377l3.144-3.144a.794.794 0 011.123 1.123L7.062 9.062a.792.792 0 01-.562.232z"/>

</symbol>
<symbol id="unlink" viewBox="0 0 15 11">
  <path d="M13.073 2.099l-1.448 1.448A3 3 0 009 2H8V0h1c1.68 0 3.166.828 4.073 2.099zM6.929 4l-.879.879L7.172 6H5a1 1 0 110-2h1.929zM6 0v2H5a3 3 0 100 6h1v2H5A5 5 0 115 0h1zm6.414 7l2.122 2.121-1.415 1.415L11 8.414l-2.121 2.122L7.464 9.12 9.586 7 7.464 4.879 8.88 3.464 11 5.586l2.121-2.122 1.415 1.415L12.414 7z"/>

</symbol></svg>