<svg xmlns="http://www.w3.org/2000/svg" viewBox="0 0 12 14" fill="none">
<path fill-rule="evenodd" clip-rule="evenodd" d="M9.22502 6.79002C10.195 6.12002 10.875 5.02001 10.875 4.00001C10.875 1.74 9.12502 0 6.87501 0H0.625V14H7.66502C9.75502 14 11.375 12.3 11.375 10.21C11.375 8.69002 10.515 7.39002 9.22502 6.79002ZM3.62516 2.49998H6.62516C7.45517 2.49998 8.12517 3.16999 8.12517 3.99999C8.12517 4.82999 7.45517 5.49999 6.62516 5.49999H3.62516V2.49998ZM3.62516 11.5H7.12517C7.95517 11.5 8.62517 10.83 8.62517 10C8.62517 9.17003 7.95517 8.50003 7.12517 8.50003H3.62516V11.5Z" fill="currectColor"/>
</svg>