<svg xmlns="http://www.w3.org/2000/svg" viewBox="0 0 24 6" fill="none">
  <path d="M18 3C18 4.65 19.35 6 21 6C22.65 6 24 4.65 24 3C24 1.35 22.65 -5.90104e-08 21 -1.31134e-07C19.35 -2.03258e-07 18 1.35 18 3Z" fill="currentColor"/>
  <path d="M15 3C15 1.35 13.65 -5.90104e-08 12 -1.31134e-07C10.35 -2.03258e-07 9 1.35 9 3C9 4.65 10.35 6 12 6C13.65 6 15 4.65 15 3Z" fill="currentColor"/>
  <path d="M6 3C6 1.35 4.65 -5.90104e-08 3 -1.31134e-07C1.35 -2.03258e-07 -5.90104e-08 1.35 -1.31134e-07 3C-2.03258e-07 4.65 1.35 6 3 6C4.65 6 6 4.65 6 3Z" fill="currentColor"/>
</svg>